<svg xmlns="http://www.w3.org/2000/svg" width="1018" height="1030" viewBox="0 0 1018 1030">
<defs>
<filter id="smoothing">
<feGaussianBlur in="SourceGraphic" stdDeviation="0.5" />
</filter>
</defs>
<g filter="url(#smoothing)" stroke-linejoin="round" stroke-linecap="round">
<path d="M 0.00 0.00 L 1018.00 0.00 L 1018.00 1030.00 L 0.00 1030.00 ZM 350.77 613.25 C357.40,619.71 363.32,625.00 363.92,625.00 C364.51,625.00 365.00,623.88 365.00,622.52 C365.00,621.16 368.63,605.30 373.06,587.27 C377.49,569.25 382.68,547.97 384.60,540.00 C388.55,523.54 402.96,465.01 412.42,427.00 C415.91,412.98 423.19,383.39 428.61,361.25 L 438.46 321.00 L 530.73 321.00 C581.48,321.00 623.00,321.12 623.00,321.27 C623.00,322.15 610.12,371.81 609.52,373.25 C608.03,376.81 610.94,374.84 616.15,368.75 C624.67,358.79 650.31,329.90 670.99,306.95 C680.38,296.53 696.18,278.64 707.16,266.00 L 712.81 259.50 L 549.69 259.76 C459.97,259.91 386.30,260.36 385.96,260.76 C385.37,261.47 378.08,290.56 366.49,338.50 C363.43,351.15 359.14,368.48 356.94,377.00 C354.75,385.52 347.09,416.35 339.92,445.50 C332.75,474.65 323.53,512.04 319.44,528.60 C315.35,545.15 312.00,559.72 312.00,560.96 C312.00,567.08 334.43,597.33 350.77,613.25 ZM 383.85 624.00 C382.52,625.33 397.20,625.47 515.91,625.21 C589.37,625.06 649.75,624.61 650.09,624.21 C650.43,623.82 652.62,615.17 654.94,605.00 C657.27,594.83 659.80,584.25 660.58,581.50 C661.35,578.75 665.10,563.67 668.91,548.00 C684.82,482.48 691.46,455.45 696.10,437.34 C698.79,426.81 701.00,417.70 701.00,417.09 C701.00,415.84 561.25,415.51 559.44,416.77 C558.86,417.17 553.26,424.25 547.00,432.50 C540.74,440.75 531.40,453.01 526.24,459.75 C521.08,466.49 517.22,472.00 517.65,472.00 C518.09,472.00 517.40,472.73 516.12,473.63 C514.65,474.66 514.20,475.51 514.89,475.93 C515.50,476.31 538.73,476.47 566.53,476.31 C610.42,476.04 617.14,476.19 617.63,477.48 C617.94,478.29 617.49,481.33 616.63,484.23 C615.77,487.13 613.48,496.02 611.55,504.00 C609.62,511.98 606.00,526.90 603.51,537.16 C601.02,547.42 598.70,557.89 598.36,560.41 L 597.73 565.00 L 476.41 565.00 L 469.45 569.34 C426.63,596.07 414.18,603.92 394.65,616.50 C389.53,619.80 384.67,623.17 383.85,624.00 ZM 387.00 600.13 C387.00,600.61 387.41,601.00 387.90,601.00 C388.40,601.00 398.86,594.63 411.15,586.84 C423.44,579.06 437.55,570.13 442.50,567.01 C447.45,563.89 456.12,558.34 461.77,554.67 L 472.05 548.00 L 583.05 548.00 L 584.04 545.41 C584.58,543.98 587.46,532.84 590.44,520.66 C593.42,508.47 596.13,497.78 596.48,496.90 C597.02,495.51 595.70,495.22 586.80,494.72 C581.14,494.40 576.10,494.53 575.61,495.01 C575.12,495.49 573.05,502.77 571.02,511.19 L 567.32 526.50 L 516.41 527.00 L 465.50 527.50 L 445.50 540.40 C434.50,547.50 424.42,554.14 423.10,555.17 C421.78,556.19 420.50,556.83 420.25,556.58 C419.79,556.13 421.58,548.52 429.56,517.00 C432.14,506.83 434.59,496.70 435.01,494.50 C435.83,490.19 438.79,478.04 441.94,466.00 C444.36,456.75 462.22,383.84 465.09,371.50 C466.23,366.55 467.39,361.71 467.65,360.75 C468.10,359.11 471.51,359.00 521.13,359.00 C571.14,359.00 574.11,359.10 573.61,360.75 C573.32,361.71 571.25,369.92 569.02,379.00 C566.78,388.08 564.70,396.30 564.40,397.28 C563.89,398.93 564.69,399.05 575.16,398.78 C585.61,398.52 586.50,398.35 586.75,396.50 C587.36,392.13 590.40,378.93 593.20,368.50 C594.83,362.45 596.99,353.67 598.00,349.00 C599.01,344.33 600.15,339.71 600.53,338.75 C601.18,337.09 597.25,337.00 526.58,337.00 C467.72,337.00 451.86,337.26 451.58,338.25 C451.39,338.94 447.57,354.58 443.11,373.00 C438.64,391.42 434.32,408.98 433.50,412.00 C432.69,415.02 429.29,428.75 425.96,442.50 C418.99,471.24 409.17,511.04 398.94,552.00 C395.03,567.67 391.42,582.79 390.92,585.59 C390.43,588.40 389.34,592.62 388.51,594.97 C387.68,597.32 387.00,599.64 387.00,600.13 ZM 169.01 838.25 C169.01,839.11 834.47,839.27 837.50,838.41 C839.27,837.90 847.00,829.11 847.00,827.59 C847.00,826.72 178.70,826.90 177.33,827.78 C175.80,828.75 169.02,837.28 169.01,838.25 ZM 267.75 808.26 C272.56,808.44 276.95,808.67 277.50,808.78 C279.86,809.23 280.79,806.83 282.60,795.50 L 284.53 783.50 L 303.85 782.93 L 310.17 795.21 L 316.50 807.50 L 328.00 808.06 C334.33,808.36 339.82,808.36 340.21,808.05 C340.60,807.74 337.59,801.86 333.53,794.99 L 326.14 782.50 L 329.25 781.68 C334.62,780.25 341.08,775.08 343.04,770.63 C345.31,765.48 347.49,750.40 346.62,745.80 C345.92,742.04 341.99,737.69 337.93,736.15 C336.51,735.62 320.99,735.05 303.44,734.89 L 271.53 734.59 L 270.31 741.54 C269.64,745.37 268.17,753.90 267.04,760.50 C265.92,767.10 263.66,779.92 262.02,789.00 C260.38,798.08 259.03,806.04 259.02,806.71 C259.01,807.54 261.74,808.03 267.75,808.26 ZM 457.14 808.25 C462.29,808.44 467.08,808.68 467.78,808.79 L 467.79 808.79 C468.09,808.84 468.33,808.88 468.54,808.82 C469.41,808.56 469.76,806.57 471.60,796.34 L 473.41 786.19 L 495.46 785.82 C515.73,785.48 517.83,785.27 521.59,783.28 C525.96,780.98 531.50,775.31 532.32,772.32 C533.17,769.25 534.89,760.82 536.02,754.25 C537.43,745.98 535.14,740.13 529.32,737.16 C525.77,735.35 522.92,735.17 492.98,734.87 L 460.50 734.54 L 460.20 737.52 C459.80,741.49 454.31,772.68 452.46,781.50 C451.66,785.35 450.55,791.88 450.01,796.00 C449.47,800.12 448.75,804.49 448.41,805.71 C447.80,807.86 448.04,807.93 457.14,808.25 ZM 186.76 807.98 C198.25,809.08 221.46,809.07 229.95,807.97 C242.24,806.38 247.38,801.49 249.86,789.00 C253.33,771.49 254.19,767.33 254.64,765.75 C255.10,764.13 253.73,764.00 235.67,764.00 L 216.20 764.00 L 215.04 769.25 C214.87,770.04 214.71,770.76 214.56,771.43 C213.55,775.93 213.16,777.68 213.85,778.46 C214.39,779.06 215.59,779.08 217.65,779.37 C220.20,779.71 224.30,780.00 226.77,780.00 L 231.26 780.00 L 230.60 784.13 C230.11,787.19 229.90,789.09 228.87,790.25 C227.20,792.13 223.34,792.05 212.56,791.85 C211.89,791.84 211.20,791.83 210.48,791.81 C198.41,791.60 192.72,791.12 191.87,790.27 C190.58,788.98 190.80,786.99 194.57,765.50 C195.57,759.80 195.77,756.50 197.50,754.58 C199.90,751.93 205.25,751.94 219.78,751.99 C221.81,751.99 224.01,752.00 226.41,752.00 L 253.78 752.00 L 254.33 749.75 C254.63,748.51 255.19,744.69 255.57,741.25 L 256.26 735.00 L 225.38 735.01 C193.43,735.01 189.67,735.40 183.94,739.26 C177.57,743.55 176.65,746.13 172.01,772.70 C168.29,793.94 168.25,796.33 171.57,800.68 C175.48,805.81 178.33,807.18 186.76,807.98 ZM 753.48 807.97 C753.85,808.57 758.42,809.00 764.45,809.00 L 774.77 809.00 L 778.93 802.00 L 783.09 795.00 L 822.63 795.00 L 824.32 800.25 C825.24,803.14 826.35,806.04 826.77,806.69 C827.95,808.51 849.56,808.67 849.32,806.86 C849.22,806.11 843.84,789.69 837.36,770.36 L 825.58 735.23 L 813.04 734.77 C806.14,734.51 799.76,734.68 798.86,735.13 C797.96,735.58 791.83,744.62 785.23,755.23 C778.63,765.83 768.65,781.80 763.04,790.72 C757.43,799.64 753.13,807.40 753.48,807.97 ZM 345.00 807.22 C345.00,807.65 350.09,808.00 356.30,808.00 L 367.60 808.00 L 374.50 795.02 L 394.75 795.01 C408.77,795.00 415.00,795.34 415.00,796.10 C415.00,796.70 415.71,799.62 416.57,802.60 L 418.14 808.00 L 429.57 808.00 C438.06,808.00 440.99,807.68 440.98,806.75 C440.97,806.06 439.82,802.35 438.42,798.50 C437.03,794.65 435.25,789.47 434.47,787.00 C433.69,784.53 429.58,771.85 425.34,758.83 L 417.63 735.16 L 405.07 734.81 C398.15,734.63 391.80,734.62 390.95,734.80 C390.10,734.98 384.47,743.07 378.45,752.79 C372.43,762.50 362.44,778.54 356.25,788.44 C350.06,798.34 345.00,806.79 345.00,807.22 ZM 601.00 808.12 C603.47,808.46 608.18,808.69 611.46,808.62 L 617.42 808.50 L 618.76 802.00 C620.63,792.98 625.89,762.96 627.09,754.50 C627.64,750.65 628.52,745.58 629.04,743.24 C629.57,740.89 630.00,737.84 630.00,736.45 L 630.00 733.93 L 619.75 734.22 L 609.50 734.50 L 604.42 761.50 L 567.50 761.50 L 567.83 756.00 C568.01,752.97 568.79,747.66 569.58,744.19 C569.71,743.60 569.84,743.04 569.96,742.52 C570.78,738.94 571.22,737.05 570.47,736.07 C569.64,734.97 567.35,734.98 562.54,735.00 C561.91,735.00 561.24,735.00 560.52,735.00 C550.46,735.00 550.02,735.09 549.57,737.25 C549.31,738.49 548.13,745.12 546.95,752.00 C545.77,758.88 543.53,771.47 541.98,780.00 C540.43,788.53 538.87,797.70 538.50,800.38 C538.14,803.06 537.60,805.87 537.31,806.63 C536.89,807.74 538.89,808.00 547.89,808.00 C556.09,808.00 559.01,807.67 559.04,806.75 C559.06,806.06 560.11,799.48 561.36,792.12 L 563.65 778.75 L 582.05 778.93 C592.17,779.04 600.59,779.25 600.75,779.42 C600.99,779.65 597.84,800.74 596.74,806.27 C596.59,807.03 598.21,807.74 601.00,808.12 ZM 668.32 808.28 C668.97,808.72 671.48,808.84 673.89,808.54 C676.30,808.24 680.63,808.00 683.51,808.00 L 688.74 808.00 L 689.84 802.25 C690.44,799.09 691.49,792.56 692.17,787.75 L 693.40 779.00 L 704.83 779.00 L 714.66 793.25 L 724.50 807.50 L 737.00 808.15 C743.88,808.51 749.65,808.66 749.82,808.49 C750.47,807.88 746.77,802.18 735.56,786.50 L 724.11 770.50 L 728.81 766.05 C731.39,763.60 739.69,755.61 747.26,748.30 L 761.02 735.00 L 753.15 735.00 C748.82,735.00 743.21,734.72 740.68,734.37 L 736.09 733.74 L 721.56 747.87 L 707.04 762.00 L 702.02 762.00 C701.70,762.00 701.39,762.00 701.11,762.01 C699.46,762.02 698.39,762.03 697.78,761.50 C696.64,760.51 697.17,757.60 698.68,749.23 C698.82,748.45 698.97,747.63 699.13,746.76 C700.29,740.24 701.08,734.82 700.88,734.71 C700.67,734.59 695.66,734.64 689.75,734.81 C679.20,735.12 679.00,735.17 679.00,737.50 C679.00,738.80 677.92,745.86 676.60,753.18 C675.28,760.51 673.48,770.78 672.59,776.00 C671.71,781.22 670.12,790.44 669.06,796.48 C667.60,804.82 667.42,807.66 668.32,808.28 ZM 622.18 387.14 L 619.86 390.00 L 646.46 390.00 C666.90,390.00 673.14,389.71 673.40,388.75 C675.24,381.93 687.39,332.55 687.98,329.50 C688.41,327.30 689.78,321.79 691.04,317.25 C692.30,312.71 693.03,308.70 692.68,308.34 C692.32,307.99 691.01,309.00 689.76,310.59 C688.52,312.18 682.55,319.05 676.50,325.86 C670.45,332.67 663.47,340.57 661.00,343.40 C658.53,346.24 649.30,356.60 640.50,366.43 C631.70,376.25 623.45,385.57 622.18,387.14 ZM 641.63 808.21 C647.06,808.37 651.95,808.38 652.50,808.23 C653.05,808.09 654.99,799.09 656.82,788.23 C660.00,769.36 664.00,746.56 665.47,738.90 L 666.17 735.30 L 655.94 734.59 C650.31,734.21 645.37,734.25 644.95,734.69 C644.53,735.14 643.72,738.42 643.15,742.00 C642.58,745.58 640.49,757.50 638.52,768.50 C636.54,779.50 634.53,790.97 634.04,794.00 C633.56,797.03 632.85,801.40 632.46,803.71 L 631.76 807.92 ZM 511.44 766.73 C509.99,768.94 509.52,769.00 492.98,769.00 C483.64,769.00 476.01,768.89 476.01,768.75 C476.02,768.61 476.69,766.03 477.50,763.00 C478.31,759.97 478.98,757.14 478.99,756.69 C478.99,756.25 476.52,754.76 473.50,753.37 C470.48,751.99 468.00,750.77 468.00,750.68 C468.00,750.58 478.00,750.65 490.23,750.82 C505.85,751.05 512.71,751.50 513.28,752.32 C514.46,754.04 513.18,764.08 511.44,766.73 ZM 323.05 764.91 C321.98,766.91 321.15,767.00 304.36,767.00 C288.02,767.00 286.84,766.88 287.50,765.25 C287.90,764.29 288.45,761.65 288.72,759.40 C289.22,755.32 289.20,755.28 284.62,753.40 C282.08,752.35 280.01,751.28 280.00,751.00 C280.00,750.36 322.03,750.89 323.89,751.55 C325.51,752.13 324.92,761.41 323.05,764.91 ZM 816.48 774.25 L 817.82 779.00 L 805.33 779.00 C798.46,779.00 792.98,778.66 793.17,778.24 C795.14,773.74 808.73,752.11 809.45,752.33 C809.97,752.50 811.47,756.43 812.77,761.07 C814.08,765.70 815.75,771.64 816.48,774.25 ZM 409.00 777.86 C409.00,778.65 405.29,779.00 396.92,779.00 C390.27,779.00 384.98,778.63 385.17,778.17 C386.37,775.16 400.54,752.00 401.17,752.00 C401.61,752.00 402.24,753.24 402.58,754.75 C402.93,756.26 404.51,761.82 406.10,767.11 C407.70,772.40 409.00,777.23 409.00,777.86 ZM 0.48 750.50 C0.48,796.30 0.54,822.91 0.63,822.91 C0.67,822.91 0.71,818.55 0.75,809.33 C0.90,777.33 0.90,724.68 0.75,692.33 C0.71,682.91 0.67,678.45 0.63,678.45 C0.54,678.45 0.48,704.88 0.48,750.50 ZM 0.32 12.00 C0.32,15.57 0.50,17.04 0.72,15.25 C0.95,13.46 0.95,10.54 0.72,8.75 C0.50,6.96 0.32,8.43 0.32,12.00 Z" fill="rgb(10,10,10)"/>
<path d="M 350.77 613.25 C346.60,609.19 342.04,604.20 337.56,598.92 L 338.68 592.77 C339.36,589.06 348.46,551.71 358.89,509.77 C369.33,467.82 380.86,421.35 384.50,406.50 C395.65,361.09 408.99,306.86 410.70,300.00 C411.59,296.42 412.71,292.73 413.17,291.79 C413.97,290.20 421.65,290.09 529.26,290.11 C592.64,290.12 647.10,290.44 650.28,290.82 L 656.07 291.50 L 645.78 300.50 C640.13,305.45 632.68,312.20 629.24,315.50 L 622.97 321.50 L 622.88 321.87 C622.96,321.52 623.00,321.32 623.00,321.27 C623.00,321.12 581.48,321.00 530.73,321.00 L 438.46 321.00 L 428.61 361.25 C423.19,383.39 415.91,412.98 412.42,427.00 C402.96,465.01 388.55,523.54 384.60,540.00 C382.68,547.97 377.49,569.25 373.06,587.27 C368.63,605.30 365.00,621.16 365.00,622.52 C365.00,623.88 364.51,625.00 363.92,625.00 C363.32,625.00 357.40,619.71 350.77,613.25 ZM 558.61 417.66 C554.50,422.54 537.00,445.51 537.00,446.12 C537.00,446.33 564.29,446.36 597.64,446.19 L 658.28 445.87 L 657.64 449.85 C657.29,452.03 651.19,477.37 644.08,506.16 C636.98,534.95 629.27,566.58 626.96,576.45 L 622.75 594.39 L 619.62 590.87 C617.91,588.94 612.09,582.33 606.69,576.18 L 596.88 565.00 L 597.73 565.00 L 598.36 560.41 C598.70,557.89 601.02,547.42 603.51,537.16 C606.00,526.90 609.62,511.98 611.55,504.00 C613.48,496.02 615.77,487.13 616.63,484.23 C617.49,481.33 617.94,478.29 617.63,477.48 C617.14,476.19 610.42,476.04 566.53,476.31 C538.73,476.47 515.50,476.31 514.89,475.93 C514.20,475.51 514.65,474.66 516.12,473.63 C517.40,472.73 518.09,472.00 517.65,472.00 C517.22,472.00 521.08,466.49 526.24,459.75 C531.40,453.01 540.74,440.75 547.00,432.50 C552.09,425.79 556.74,419.86 558.61,417.66 ZM 383.85 624.00 C384.67,623.17 389.53,619.80 394.65,616.50 C413.82,604.15 426.17,596.36 467.11,570.80 C462.10,573.96 451.82,580.40 444.00,585.27 C430.59,593.62 422.88,599.08 428.68,596.12 C430.25,595.32 458.13,595.00 526.80,595.00 L 622.74 595.00 L 630.62 604.12 C634.95,609.14 640.30,615.63 642.50,618.54 C644.70,621.46 647.17,624.02 648.00,624.25 C648.12,624.28 648.25,624.31 648.37,624.33 C638.03,624.69 582.31,625.07 515.91,625.21 C397.20,625.47 382.52,625.33 383.85,624.00 ZM 0.48 750.50 C0.48,704.88 0.54,678.45 0.63,678.45 C0.67,678.45 0.71,682.91 0.75,692.33 C0.90,724.68 0.90,777.33 0.75,809.33 C0.71,818.55 0.67,822.91 0.63,822.91 C0.54,822.91 0.48,796.30 0.48,750.50 ZM 324.93 583.00 C317.81,573.35 312.53,564.84 312.04,561.44 C312.57,563.92 318.63,573.87 324.93,583.00 ZM 0.32 12.00 C0.32,8.43 0.50,6.96 0.72,8.75 C0.95,10.54 0.95,13.46 0.72,15.25 C0.50,17.04 0.32,15.57 0.32,12.00 ZM 615.75 349.89 C612.60,362.17 609.89,372.37 609.52,373.25 C609.80,372.59 612.70,361.59 615.75,349.89 ZM 312.00 561.07 C312.00,561.03 312.00,561.00 312.00,560.96 C312.00,559.72 315.35,545.15 319.44,528.60 C315.41,544.91 312.10,559.36 312.00,561.07 ZM 649.78 624.26 C649.92,624.21 650.03,624.15 650.11,624.08 C650.44,623.76 652.62,615.17 654.94,605.00 C652.62,615.17 650.43,623.82 650.09,624.21 C650.08,624.23 649.98,624.24 649.78,624.26 Z" fill="rgb(32,171,71)"/>
<path d="M 324.93 583.00 C318.63,573.87 312.57,563.92 312.04,561.44 C312.02,561.31 312.01,561.19 312.00,561.07 C312.10,559.36 315.41,544.91 319.44,528.60 C323.53,512.04 332.75,474.65 339.92,445.50 C347.09,416.35 354.75,385.52 356.94,377.00 C359.14,368.48 363.43,351.15 366.49,338.50 C378.08,290.56 385.37,261.47 385.96,260.76 C386.30,260.36 459.97,259.91 549.69,259.76 L 712.81 259.50 L 707.16 266.00 C696.18,278.64 680.38,296.53 670.99,306.95 C650.31,329.90 624.67,358.79 616.15,368.75 C610.94,374.84 608.03,376.81 609.52,373.25 C609.89,372.37 612.60,362.18 615.75,349.89 L 615.75 349.89 C618.91,337.72 622.22,324.79 622.88,321.87 L 622.97 321.50 L 629.24 315.50 C632.68,312.20 640.13,305.45 645.78,300.50 L 656.07 291.50 L 650.28 290.82 C647.10,290.44 592.64,290.12 529.26,290.11 C421.65,290.09 413.97,290.20 413.17,291.79 C412.71,292.73 411.59,296.42 410.70,300.00 C408.99,306.86 395.65,361.09 384.50,406.50 C380.86,421.35 369.33,467.82 358.89,509.77 C348.46,551.71 339.36,589.06 338.68,592.77 L 337.56 598.92 C333.12,593.70 328.76,588.18 324.93,583.00 ZM 558.61 417.66 C559.05,417.15 559.33,416.84 559.44,416.77 C561.25,415.51 701.00,415.84 701.00,417.09 C701.00,417.70 698.79,426.81 696.10,437.34 C691.46,455.45 684.82,482.48 668.91,548.00 C665.10,563.67 661.35,578.75 660.58,581.50 C659.80,584.25 657.27,594.83 654.94,605.00 C652.62,615.17 650.44,623.76 650.11,624.08 C650.03,624.15 649.92,624.21 649.78,624.26 C649.50,624.28 649.03,624.30 648.37,624.33 C648.25,624.31 648.12,624.28 648.00,624.25 C647.17,624.02 644.70,621.46 642.50,618.54 C640.30,615.63 634.95,609.14 630.62,604.12 L 622.74 595.00 L 526.80 595.00 C458.13,595.00 430.25,595.32 428.68,596.12 C422.88,599.08 430.59,593.62 444.00,585.27 C451.82,580.40 462.10,573.96 467.11,570.80 L 469.45 569.34 L 476.41 565.00 L 596.88 565.00 L 606.69 576.18 C612.09,582.33 617.91,588.94 619.62,590.87 L 622.75 594.39 L 626.96 576.45 C629.27,566.58 636.98,534.95 644.08,506.16 C651.19,477.37 657.29,452.03 657.64,449.85 L 658.28 445.87 L 597.64 446.19 C564.29,446.36 537.00,446.33 537.00,446.12 C537.00,445.51 554.50,422.54 558.61,417.66 ZM 169.01 838.25 C169.02,837.28 175.80,828.75 177.33,827.78 C178.70,826.90 847.00,826.72 847.00,827.59 C847.00,829.11 839.27,837.90 837.50,838.41 C834.47,839.27 169.01,839.11 169.01,838.25 Z" fill="rgb(71,250,105)"/>
<path d="M 186.76 807.98 C178.33,807.18 175.48,805.81 171.57,800.68 C168.25,796.33 168.29,793.94 172.01,772.70 C176.65,746.13 177.57,743.55 183.94,739.26 C189.67,735.40 193.43,735.01 225.38,735.01 L 256.26 735.00 L 255.57 741.25 C255.19,744.69 254.63,748.51 254.33,749.75 L 253.78 752.00 L 226.41 752.00 C194.36,752.00 197.15,750.82 194.57,765.50 C190.80,786.99 190.58,788.98 191.87,790.27 C192.72,791.12 198.41,791.60 210.48,791.81 C230.06,792.17 229.26,792.47 230.60,784.13 L 231.26 780.00 L 226.77 780.00 C224.30,780.00 220.20,779.71 217.65,779.37 C212.53,778.66 212.77,779.57 215.04,769.25 L 216.20 764.00 L 235.67 764.00 C253.73,764.00 255.10,764.13 254.64,765.75 C254.19,767.33 253.33,771.49 249.86,789.00 C247.38,801.49 242.24,806.38 229.95,807.97 C221.46,809.07 198.25,809.08 186.76,807.98 ZM 267.75 808.26 C261.74,808.03 259.01,807.54 259.02,806.71 C259.03,806.04 260.38,798.08 262.02,789.00 C263.66,779.92 265.92,767.10 267.04,760.50 C268.17,753.90 269.64,745.37 270.31,741.54 L 271.53 734.59 L 303.44 734.89 C320.99,735.05 336.51,735.62 337.93,736.15 C341.99,737.69 345.92,742.04 346.62,745.80 C347.49,750.40 345.31,765.48 343.04,770.63 C341.08,775.08 334.62,780.25 329.25,781.68 L 326.14 782.50 L 333.53 794.99 C337.59,801.86 340.60,807.74 340.21,808.05 C339.82,808.36 334.33,808.36 328.00,808.06 L 316.50 807.50 L 310.17 795.21 L 303.85 782.93 L 294.19 783.21 L 284.53 783.50 L 282.60 795.50 C280.79,806.83 279.86,809.23 277.50,808.78 C276.95,808.67 272.56,808.44 267.75,808.26 ZM 323.05 764.91 C324.92,761.41 325.51,752.13 323.89,751.55 C322.03,750.89 280.00,750.36 280.00,751.00 C280.01,751.28 282.08,752.35 284.62,753.40 C289.20,755.28 289.22,755.32 288.72,759.40 C288.45,761.65 287.90,764.29 287.50,765.25 C286.84,766.88 288.02,767.00 304.36,767.00 C321.15,767.00 321.98,766.91 323.05,764.91 ZM 457.14 808.25 C448.04,807.93 447.80,807.86 448.41,805.71 C448.75,804.49 449.47,800.12 450.01,796.00 C450.55,791.88 451.66,785.35 452.46,781.50 C454.31,772.68 459.80,741.49 460.20,737.52 L 460.50 734.54 L 492.98 734.87 C522.92,735.17 525.77,735.35 529.32,737.16 C535.14,740.13 537.43,745.98 536.02,754.25 C534.89,760.82 533.17,769.25 532.32,772.32 C531.50,775.31 525.96,780.98 521.59,783.28 C517.83,785.27 515.73,785.48 495.46,785.82 L 473.41 786.19 L 471.60 796.34 C469.32,809.08 469.33,809.04 467.78,808.79 C467.08,808.68 462.29,808.44 457.14,808.25 ZM 511.44 766.73 C513.18,764.08 514.46,754.04 513.28,752.32 C512.71,751.50 505.85,751.05 490.23,750.82 C478.00,750.65 468.00,750.58 468.00,750.68 C468.00,750.77 470.48,751.99 473.50,753.37 C476.52,754.76 478.99,756.25 478.99,756.69 C478.98,757.14 478.31,759.97 477.50,763.00 C476.69,766.03 476.02,768.61 476.01,768.75 C476.01,768.89 483.64,769.00 492.98,769.00 C509.52,769.00 509.99,768.94 511.44,766.73 ZM 601.00 808.12 C598.21,807.74 596.59,807.03 596.74,806.27 C597.84,800.74 600.99,779.65 600.75,779.42 C600.59,779.25 592.17,779.04 582.05,778.93 L 563.65 778.75 L 561.36 792.12 C560.11,799.48 559.06,806.06 559.04,806.75 C559.01,807.67 556.09,808.00 547.89,808.00 C538.89,808.00 536.89,807.74 537.31,806.63 C537.60,805.87 538.14,803.06 538.50,800.38 C538.87,797.70 540.43,788.53 541.98,780.00 C543.53,771.47 545.77,758.88 546.95,752.00 C548.13,745.12 549.31,738.49 549.57,737.25 C550.02,735.09 550.46,735.00 560.52,735.00 C572.41,735.00 571.79,734.37 569.58,744.19 C568.79,747.66 568.01,752.97 567.83,756.00 L 567.50 761.50 L 585.96 761.50 L 604.42 761.50 L 606.96 748.00 L 609.50 734.50 L 619.75 734.22 L 630.00 733.93 L 630.00 736.45 C630.00,737.84 629.57,740.89 629.04,743.24 C628.52,745.58 627.64,750.65 627.09,754.50 C625.89,762.96 620.63,792.98 618.76,802.00 L 617.42 808.50 L 611.46 808.62 C608.18,808.69 603.47,808.46 601.00,808.12 ZM 641.63 808.21 L 631.76 807.92 L 632.46 803.71 C632.85,801.40 633.56,797.03 634.04,794.00 C634.53,790.97 636.54,779.50 638.52,768.50 C640.49,757.50 642.58,745.58 643.15,742.00 C643.72,738.42 644.53,735.14 644.95,734.69 C645.37,734.25 650.31,734.21 655.94,734.59 L 666.17 735.30 L 665.47 738.90 C664.00,746.56 660.00,769.36 656.82,788.23 C654.99,799.09 653.05,808.09 652.50,808.23 C651.95,808.38 647.06,808.37 641.63,808.21 ZM 668.32 808.28 C667.42,807.66 667.60,804.82 669.06,796.48 C670.12,790.44 671.71,781.22 672.59,776.00 C673.48,770.78 675.28,760.51 676.60,753.18 C677.92,745.86 679.00,738.80 679.00,737.50 C679.00,735.17 679.20,735.12 689.75,734.81 C695.66,734.64 700.67,734.59 700.88,734.71 C701.08,734.82 700.29,740.24 699.13,746.76 C696.22,762.92 696.05,762.00 702.02,762.00 L 707.04 762.00 L 721.56 747.87 L 736.09 733.74 L 740.68 734.37 C743.21,734.72 748.82,735.00 753.15,735.00 L 761.02 735.00 L 747.26 748.30 C739.69,755.61 731.39,763.60 728.81,766.05 L 724.11 770.50 L 735.56 786.50 C746.77,802.18 750.47,807.88 749.82,808.49 C749.65,808.66 743.88,808.51 737.00,808.15 L 724.50 807.50 L 714.66 793.25 L 704.83 779.00 L 699.11 779.00 L 693.40 779.00 L 692.17 787.75 C691.49,792.56 690.44,799.09 689.84,802.25 L 688.74 808.00 L 683.51 808.00 C680.63,808.00 676.30,808.24 673.89,808.54 C671.48,808.84 668.97,808.72 668.32,808.28 ZM 753.48 807.97 C753.13,807.40 757.43,799.64 763.04,790.72 C768.65,781.80 778.63,765.83 785.23,755.23 C791.83,744.62 797.96,735.58 798.86,735.13 C799.76,734.68 806.14,734.51 813.04,734.77 L 825.58 735.23 L 837.36 770.36 C843.84,789.69 849.22,806.11 849.32,806.86 C849.56,808.67 827.95,808.51 826.77,806.69 C826.35,806.04 825.24,803.14 824.32,800.25 L 822.63 795.00 L 802.86 795.00 L 783.09 795.00 L 778.93 802.00 L 774.77 809.00 L 764.45 809.00 C758.42,809.00 753.85,808.57 753.48,807.97 ZM 816.48 774.25 C815.75,771.64 814.08,765.70 812.77,761.07 C811.47,756.43 809.97,752.50 809.45,752.33 C808.73,752.11 795.14,773.74 793.17,778.24 C792.98,778.66 798.46,779.00 805.33,779.00 L 817.82 779.00 L 816.48 774.25 ZM 345.00 807.22 C345.00,806.79 350.06,798.34 356.25,788.44 C362.44,778.54 372.43,762.50 378.45,752.79 C384.47,743.07 390.10,734.98 390.95,734.80 C391.80,734.62 398.15,734.63 405.07,734.81 L 417.63 735.16 L 425.34 758.83 C429.58,771.85 433.69,784.53 434.47,787.00 C435.25,789.47 437.03,794.65 438.42,798.50 C439.82,802.35 440.97,806.06 440.98,806.75 C440.99,807.68 438.06,808.00 429.57,808.00 L 418.14 808.00 L 416.57 802.60 C415.71,799.62 415.00,796.70 415.00,796.10 C415.00,795.34 408.77,795.00 394.75,795.01 L 374.50 795.02 L 371.05 801.51 L 367.60 808.00 L 356.30 808.00 C350.09,808.00 345.00,807.65 345.00,807.22 ZM 409.00 777.86 C409.00,777.23 407.70,772.40 406.10,767.11 C404.51,761.82 402.93,756.26 402.58,754.75 C402.24,753.24 401.61,752.00 401.17,752.00 C400.54,752.00 386.37,775.16 385.17,778.17 C384.98,778.63 390.27,779.00 396.92,779.00 C405.29,779.00 409.00,778.65 409.00,777.86 ZM 387.00 600.13 C387.00,599.64 387.68,597.32 388.51,594.97 C389.34,592.62 390.43,588.40 390.92,585.59 C391.42,582.79 395.03,567.67 398.94,552.00 C409.17,511.04 418.99,471.24 425.96,442.50 C429.29,428.75 432.69,415.02 433.50,412.00 C434.32,408.98 438.64,391.42 443.11,373.00 C447.57,354.58 451.39,338.94 451.58,338.25 C451.86,337.26 467.72,337.00 526.58,337.00 C597.25,337.00 601.18,337.09 600.53,338.75 C600.15,339.71 599.01,344.33 598.00,349.00 C596.99,353.67 594.83,362.45 593.20,368.50 C590.40,378.93 587.36,392.13 586.75,396.50 C586.50,398.35 585.61,398.52 575.16,398.78 C564.69,399.05 563.89,398.93 564.40,397.28 C564.70,396.30 566.78,388.08 569.02,379.00 C571.25,369.92 573.32,361.71 573.61,360.75 C574.11,359.10 571.14,359.00 521.13,359.00 C471.51,359.00 468.10,359.11 467.65,360.75 C467.39,361.71 466.23,366.55 465.09,371.50 C462.22,383.84 444.36,456.75 441.94,466.00 C438.79,478.04 435.83,490.19 435.01,494.50 C434.59,496.70 432.14,506.83 429.56,517.00 C421.58,548.52 419.79,556.13 420.25,556.58 C420.50,556.83 421.78,556.19 423.10,555.17 C424.42,554.14 434.50,547.50 445.50,540.40 L 465.50 527.50 L 516.41 527.00 L 567.32 526.50 L 571.02 511.19 C573.05,502.77 575.12,495.49 575.61,495.01 C576.10,494.53 581.14,494.40 586.80,494.72 C595.70,495.22 597.02,495.51 596.48,496.90 C596.13,497.78 593.42,508.47 590.44,520.66 C587.46,532.84 584.58,543.98 584.04,545.41 L 583.05 548.00 L 527.55 548.00 L 472.05 548.00 L 461.77 554.67 C456.12,558.34 447.45,563.89 442.50,567.01 C437.55,570.13 423.44,579.06 411.15,586.84 C398.86,594.63 388.40,601.00 387.90,601.00 C387.41,601.00 387.00,600.61 387.00,600.13 ZM 622.18 387.14 C623.45,385.57 631.70,376.25 640.50,366.43 C649.30,356.60 658.53,346.24 661.00,343.40 C663.47,340.57 670.45,332.67 676.50,325.86 C682.55,319.05 688.52,312.18 689.76,310.59 C691.01,309.00 692.32,307.99 692.68,308.34 C693.03,308.70 692.30,312.71 691.04,317.25 C689.78,321.79 688.41,327.30 687.98,329.50 C687.39,332.55 675.24,381.93 673.40,388.75 C673.14,389.71 666.90,390.00 646.46,390.00 L 619.86 390.00 L 622.18 387.14 Z" fill="rgb(251,251,251)"/>
</g>
</svg>