<svg width="512" height="512" viewBox="0 0 512 512" fill="none" xmlns="http://www.w3.org/2000/svg">
  <rect width="512" height="512" rx="112" fill="#050504"/>
  <circle cx="256" cy="238" r="145" fill="#020202"/>
  <path d="M164 366L206 116H369L332 155H239L200 339L164 366Z" fill="#23E95B"/>
  <path d="M184 344L221 139H316L286 177H253L225 322L184 344Z" fill="#B7FF62" opacity="0.7"/>
  <path d="M216 369L261 325H352L374 207H282L270 253H322L315 284H249L273 177H374L361 236H415L386 369H216Z" fill="#24E65E"/>
  <path d="M211 352L257 307H334L344 255H262L280 169H370L356 207H311L304 230H390L367 347H270L235 382L211 352Z" fill="#F3F0E6"/>
  <path d="M292 307H334L344 255H262L270 230H390L367 347H270L235 382L211 352L257 307H292Z" fill="#050504"/>
  <path d="M357 207L424 141L391 223L357 207Z" fill="#F3F0E6"/>
  <path d="M374 196L410 160L392 205L374 196Z" fill="#050504"/>
  <path d="M204 116H369L352 134H220L181 348L164 366L204 116Z" fill="#3BFF72"/>
  <path d="M260 325H352L374 207H322L315 226H351L333 306H269L226 350L216 369L260 325Z" fill="#12C647" opacity="0.78"/>
</svg>
